<svg width="50" height="50" viewBox="0 0 50 50" fill="none" xmlns="http://www.w3.org/2000/svg">
<rect width="50" height="50" rx="10" fill="white"/>
<path d="M33.4376 22.1375V21.2563C33.4376 16.42 29.6576 12.5 25.0001 12.5C20.3426 12.5 16.5626 16.42 16.5626 21.2563V22.1375C16.5641 23.1894 16.2639 24.2198 15.6976 25.1063L14.3126 27.2625C13.0488 29.2313 14.0138 31.9075 16.2126 32.53C21.9579 34.1571 28.0422 34.1571 33.7876 32.53C35.9863 31.9075 36.9513 29.2312 35.6876 27.2637L34.3026 25.1075C33.7358 24.2211 33.4352 23.1908 33.4363 22.1388L33.4376 22.1375Z" stroke="#59D9A4" stroke-width="1.5"/>
<path d="M19.375 33.75C20.1937 35.935 22.4025 37.5 25 37.5C27.5975 37.5 29.8063 35.935 30.625 33.75" stroke="#59D9A4" stroke-width="1.5" stroke-linecap="round"/>
</svg>
